inDegrees=no
num_controls=7
num_derivatives=13
num_iterations=97
num_multipliers=7
num_parameters=0
num_slacks=7
num_states=26
objective=0.444958
objective_accelerations=0.057433
objective_balance=0.003356
objective_effort=0.022890
objective_height=0.355794
objective_ligament=0.005485
solver_duration=1435.543045
status=Solve_Succeeded
success=true
DataType=double
version=3
OpenSimVersion=4.5
endheader
time	/jointset/ground_pelvis/pelvis_tilt/value	/jointset/ground_pelvis/pelvis_tx/value	/jointset/ground_pelvis/pelvis_ty/value	/jointset/hip_l/hip_flexion_l/value	/jointset/hip_l/hip_adduction_l/value	/jointset/hip_l/hip_rotation_l/value	/jointset/back/lumbar_extension/value	/jointset/patellofemoral_l/patellar_flexion_l/value	/jointset/knee_l/knee_flexion_l/value	/jointset/knee_l/knee_adduction_l/value	/jointset/knee_l/knee_rotation_l/value	/jointset/ankle_l/ankle_angle_l/value	/jointset/subtalar_l/subtalar_angle_l/value	/jointset/ground_pelvis/pelvis_tilt/speed	/jointset/ground_pelvis/pelvis_tx/speed	/jointset/ground_pelvis/pelvis_ty/speed	/jointset/hip_l/hip_flexion_l/speed	/jointset/hip_l/hip_adduction_l/speed	/jointset/hip_l/hip_rotation_l/speed	/jointset/back/lumbar_extension/speed	/jointset/patellofemoral_l/patellar_flexion_l/speed	/jointset/knee_l/knee_flexion_l/speed	/jointset/knee_l/knee_adduction_l/speed	/jointset/knee_l/knee_rotation_l/speed	/jointset/ankle_l/ankle_angle_l/speed	/jointset/subtalar_l/subtalar_angle_l/speed	/forceset/tau_hip_flexion_l	/forceset/tau_hip_adduction_l	/forceset/tau_hip_rotation_l	/forceset/tau_knee_flexion_l	/forceset/tau_ankle_angle_l	/forceset/tau_subtalar_angle_l	/forceset/tau_lumbar_extension	lambda_cid13_p0	lambda_cid13_p1	lambda_cid13_p2	lambda_cid13_p3	lambda_cid13_p4	lambda_cid13_p5	lambda_cid14_p0	/jointset/ground_pelvis/pelvis_tilt/accel	/jointset/ground_pelvis/pelvis_tx/accel	/jointset/ground_pelvis/pelvis_ty/accel	/jointset/hip_l/hip_flexion_l/accel	/jointset/hip_l/hip_adduction_l/accel	/jointset/hip_l/hip_rotation_l/accel	/jointset/back/lumbar_extension/accel	/jointset/patellofemoral_l/patellar_flexion_l/accel	/jointset/knee_l/knee_flexion_l/accel	/jointset/knee_l/knee_adduction_l/accel	/jointset/knee_l/knee_rotation_l/accel	/jointset/ankle_l/ankle_angle_l/accel	/jointset/subtalar_l/subtalar_angle_l/accel	gamma_cid13_p0	gamma_cid13_p1	gamma_cid13_p2	gamma_cid13_p3	gamma_cid13_p4	gamma_cid13_p5	gamma_cid14_p0
0.5	-0.3374567556809106	-0.03486080876261571	0.7594025372785008	1.097354377437219	-0.4376435485966236	-0.2197583209515534	-0.2534456618766023	0.816420130530161	0.8164201305301318	-0.1264627710764728	-0.1586996102509212	0.1172983654964213	-0.02839615165742466	-0.7572386380809791	-0.2110019349584064	-0.5356071548029883	2.473234082293261	-0.2061464796774771	0.7574190347087967	-0.1219218360040354	2.012957615879657	2.012957615879257	0.1314933493334447	-0.08502057678263962	0.4728874141166268	0.006502396834067585	-0.169856669464123	0.02998126649971769	-0.01115615582519404	-0.2163665353941457	0.06101387442890362	0.03765852204351299	0.1678536709947115	-13.21831403507897	-17.04675320886918	5.815477077266846	-5.107807017115395	-522.3643605525263	-56.51863964077474	-24.70543239154314	0.8296979968632368	0.5892692503325305	-0.4627085621649588	-1.389800448125639	0.7552517096402004	-0.2150809493274392	1.088423146556032	-1.315480052078707	-1.315480052078708	0.07348334442125755	0.181919070288626	-0.5560062221745616	0.5407301875982983	-5.700644505216487e-07	-4.20618032513499e-07	2.888740053691514e-06	1.557889817816679e-07	-6.458529991009914e-07	1.645538794944773e-08	-4.668367581597481e-07
0.51	-0.344985804550377	-0.03694110445368979	0.7540245254022089	1.122012366411914	-0.4396684004705237	-0.2121936428169569	-0.2546116158525736	0.8364807625902014	0.8364807625902212	-0.1251485549699863	-0.159540225265836	0.1219981945126098	-0.02830604779300623	-0.7484602925368087	-0.205038756486098	-0.5398782159097822	2.458019158004556	-0.1988090794558162	0.755408825963652	-0.1113083293835029	1.998895674659032	1.998895674658566	0.1313458772794001	-0.08309921481003821	0.4670007138421798	0.01150428464474087	-0.1753086351248176	0.03070002612724248	-0.01123415528434042	-0.2192380299227176	0.06048653361784721	0.03797744475320617	0.1720362231189127	-13.58953058846618	-17.08592021932911	5.782491548287092	-5.02222056543805	-526.0541705752829	-56.14409364138359	-23.77534952982629	0.9184584203613066	0.6026429707399014	-0.3918807807889242	-1.639104813213721	0.7248697996405269	-0.2105595102900992	1.041908890827404	-1.492426669344172	-1.492426669353936	-0.05941307676251546	0.1983122157455794	-0.6166468343696025	0.4775212659743936	-5.555257483000746e-07	-3.084019042046892e-07	2.942656180381815e-06	1.821742461836018e-07	-6.227965498402348e-07	9.852153991246215e-08	-4.591856684991866e-07
0.52	-0.3524237588469697	-0.03896120819502877	0.7486072877356783	1.14650785286493	-0.4416195012179643	-0.2046523805044482	-0.255672615868134	0.8563926001355822	0.8563926001356407	-0.1238359237033388	-0.1603614131700133	0.126636827545196	-0.02816640441284655	-0.7390197235059406	-0.1989635450113878	-0.5434523128506793	2.440733577957023	-0.1913962543856966	0.7527358702912234	-0.1009310439219495	1.983198712946816	1.983198712946285	0.1311763813675485	-0.08113515463745039	0.4606482173961385	0.01641029998231556	-0.1807606007854733	0.03141878575477233	-0.01131215474359613	-0.2221095244512831	0.05995919280678844	0.03829636746290588	0.1762187752431514	-13.96426386885883	-17.12528827111774	5.750472948513999	-4.969686773040147	-529.824057270166	-55.83052144165229	-22.84695889423666	0.962142694202817	0.611675850812875	-0.3233157289855927	-1.803931599891055	0.7703366793319342	-0.3476303347842591	1.041178914760204	-1.642484150396752	-1.642484150396715	0.06907857285988162	0.1904587102859114	-0.6491654564934486	0.5215556929785787	-5.397731909852997e-07	-2.036058933526794e-07	2.983839276984532e-06	2.086953111859017e-07	-6.024067109853279e-07	1.800798536748325e-07	-4.503861403904124e-07
0.53	-0.3597642137183564	-0.04092006936711861	0.7431578077364606	1.170820515338051	-0.4434960893764438	-0.1971407974948004	-0.2566310461067413	0.8761395145997327	0.876139514599798	-0.1225251704253339	-0.1611625546237653	0.1312097293329163	-0.02797811761891773	-0.7289685454323226	-0.1927960606932042	-0.5463239850569811	2.421468210604356	-0.1839137434661831	0.7494713223711417	-0.09081014897351943	1.965927287861517	1.96592728786113	0.1309721069910854	-0.07909362973616939	0.4538636698483388	0.02122965064914461	-0.1860161721275443	0.03176253262447915	-0.01133400464416924	-0.2251516973649382	0.05957329402977976	0.03855849365334361	0.1802095256816774	-14.29412715211187	-17.14596916997327	5.713329364325173	-4.881464513391914	-533.54218765716	-55.54366446120941	-21.92214587373171	1.041938911078983	0.6212235544290982	-0.2512560154471216	-2.037529538655539	0.7379796113377658	-0.3326619878287999	0.9892730087866807	-1.807916338129135	-1.807916338107622	-0.06543313179380895	0.2115270483574181	-0.7033507537404995	0.4591862660939983	-5.208319292885087e-07	-1.028792150288168e-07	3.004319028613692e-06	2.341363058372333e-07	-5.814761892050425e-07	2.589551892789164e-07	-4.388071086008173e-07
0.54	-0.3670010900995808	-0.04281686792960498	0.7376831784053808	1.194930586090508	-0.445297698163112	-0.1896652189577946	-0.2574899217510833	0.8957060258829296	0.8957060258829908	-0.1212165104288836	-0.1619431752948278	0.1357127353751954	-0.02774222501580882	-0.7183040254731948	-0.186551023090695	-0.5484821792230808	2.400215233823649	-0.1764003800236029	0.7455349757627147	-0.08102012506899939	1.94711807675491	1.947118076754665	0.1307577250588477	-0.07703099810256053	0.4466690683078475	0.02593146181833025	-0.1912717434695663	0.03210627949419446	-0.01135585454490488	-0.2281938702785843	0.0591873952527688	0.03882061984379247	0.18420027612025	-14.62746086054606	-17.16718031516692	5.677572040289497	-4.827422564790361	-537.3393120929874	-55.31703014149907	-21.00554601185978	1.084811071304791	0.6271865076779964	-0.1806201209451838	-2.201453485499037	0.7765071839452634	-0.4819900724533166	0.9750047059782071	-1.950041354658588	-1.950041354658593	0.06705706170495729	0.1946800567514878	-0.7311762550317663	0.4980477934498979	-4.983627393392742e-07	-6.65477694886167e-09	3.001892951761469e-06	2.583823290364299e-07	-5.59947465039232e-07	3.348621235163853e-07	-4.24152881249463e-07
